<mxfile host="65bd71144e">
    <diagram name="Page-1" id="4L_qb7pRuPfOV9gnkGFq">
        <mxGraphModel dx="511" dy="449" grid="1" gridSize="10" guides="1" tooltips="1" connect="1" arrows="1" fold="1" page="1" pageScale="1" pageWidth="827" pageHeight="1169" math="0" shadow="0">
            <root>
                <mxCell id="0"/>
                <mxCell id="1" parent="0"/>
                <mxCell id="o17m8Pc5TRWk9Ju9fHRL-1" value="app/&amp;nbsp;&lt;div&gt;(routing, config, plugins, layouts, styles/)&amp;nbsp;&lt;/div&gt;" style="rounded=1;whiteSpace=wrap;html=1;fillColor=#f8cecc;strokeColor=#b85450;" parent="1" vertex="1">
                    <mxGeometry x="156" y="245" width="510" height="60" as="geometry"/>
                </mxCell>
                <mxCell id="o17m8Pc5TRWk9Ju9fHRL-3" value="modules/&lt;div&gt;(auth, users, settings)&lt;/div&gt;" style="rounded=1;whiteSpace=wrap;html=1;fillColor=#ffe6cc;strokeColor=#d79b00;" parent="1" vertex="1">
                    <mxGeometry x="156" y="375" width="240" height="60" as="geometry"/>
                </mxCell>
                <mxCell id="o17m8Pc5TRWk9Ju9fHRL-4" value="features/&lt;div&gt;(search, notifications, dashboard)&lt;/div&gt;" style="rounded=1;whiteSpace=wrap;html=1;fillColor=#ffe6cc;strokeColor=#d79b00;" parent="1" vertex="1">
                    <mxGeometry x="426" y="375" width="240" height="60" as="geometry"/>
                </mxCell>
                <mxCell id="o17m8Pc5TRWk9Ju9fHRL-5" value="composables/&lt;div&gt;(business logic hooks)&lt;/div&gt;" style="rounded=1;whiteSpace=wrap;html=1;fillColor=#d5e8d4;strokeColor=#82b366;" parent="1" vertex="1">
                    <mxGeometry x="156" y="505" width="150" height="60" as="geometry"/>
                </mxCell>
                <mxCell id="o17m8Pc5TRWk9Ju9fHRL-6" value="components/&lt;div&gt;(reusable UI)&lt;/div&gt;" style="rounded=1;whiteSpace=wrap;html=1;fillColor=#d5e8d4;strokeColor=#82b366;" parent="1" vertex="1">
                    <mxGeometry x="336" y="505" width="150" height="60" as="geometry"/>
                </mxCell>
                <mxCell id="o17m8Pc5TRWk9Ju9fHRL-7" value="entities/&lt;div&gt;(User, Product, Order)&lt;/div&gt;" style="rounded=1;whiteSpace=wrap;html=1;fillColor=#dae8fc;strokeColor=#6c8ebf;" parent="1" vertex="1">
                    <mxGeometry x="161" y="766" width="510" height="60" as="geometry"/>
                </mxCell>
                <mxCell id="o17m8Pc5TRWk9Ju9fHRL-9" value="stores/&lt;div&gt;(global state, cross-module communication)&lt;/div&gt;" style="rounded=1;whiteSpace=wrap;html=1;fillColor=#f5f5f5;strokeColor=#666666;fontColor=#333333;" parent="1" vertex="1">
                    <mxGeometry x="161" y="635" width="510" height="60" as="geometry"/>
                </mxCell>
                <mxCell id="o17m8Pc5TRWk9Ju9fHRL-10" value="services/&lt;div&gt;(API clients)&lt;/div&gt;" style="rounded=1;whiteSpace=wrap;html=1;fillColor=#d5e8d4;strokeColor=#82b366;" parent="1" vertex="1">
                    <mxGeometry x="516" y="505" width="150" height="60" as="geometry"/>
                </mxCell>
                <mxCell id="o17m8Pc5TRWk9Ju9fHRL-12" value="shared/&lt;div&gt;(UI kit, constants, formatters, validators)&lt;/div&gt;" style="rounded=1;whiteSpace=wrap;html=1;fillColor=#e1d5e7;strokeColor=#9673a6;" parent="1" vertex="1">
                    <mxGeometry x="161" y="896" width="510" height="60" as="geometry"/>
                </mxCell>
                <mxCell id="o17m8Pc5TRWk9Ju9fHRL-14" value="STATE LAYER" style="text;html=1;align=left;verticalAlign=bottom;whiteSpace=wrap;rounded=0;fontStyle=1;labelBackgroundColor=none;fontColor=#808080;" parent="1" vertex="1">
                    <mxGeometry x="161" y="605" width="510" height="30" as="geometry"/>
                </mxCell>
                <mxCell id="o17m8Pc5TRWk9Ju9fHRL-15" value="UTILITY LAYER" style="text;html=1;align=left;verticalAlign=bottom;whiteSpace=wrap;rounded=0;fontStyle=1;labelBackgroundColor=none;fontColor=#808080;" parent="1" vertex="1">
                    <mxGeometry x="161" y="866" width="510" height="30" as="geometry"/>
                </mxCell>
                <mxCell id="o17m8Pc5TRWk9Ju9fHRL-16" value="DATA LAYER" style="text;html=1;align=left;verticalAlign=bottom;whiteSpace=wrap;rounded=0;fontStyle=1;labelBackgroundColor=none;fontColor=#808080;" parent="1" vertex="1">
                    <mxGeometry x="161" y="736" width="510" height="30" as="geometry"/>
                </mxCell>
                <mxCell id="o17m8Pc5TRWk9Ju9fHRL-17" value="SHARED BUSINESS LAYER" style="text;html=1;align=left;verticalAlign=bottom;whiteSpace=wrap;rounded=0;fontStyle=1;labelBackgroundColor=none;fontColor=#808080;" parent="1" vertex="1">
                    <mxGeometry x="156" y="475" width="510" height="30" as="geometry"/>
                </mxCell>
                <mxCell id="o17m8Pc5TRWk9Ju9fHRL-18" value="DOMAIN LAYER" style="text;html=1;align=left;verticalAlign=bottom;whiteSpace=wrap;rounded=0;fontStyle=1;labelBackgroundColor=none;fontColor=#808080;" parent="1" vertex="1">
                    <mxGeometry x="156" y="345" width="510" height="30" as="geometry"/>
                </mxCell>
                <mxCell id="o17m8Pc5TRWk9Ju9fHRL-19" value="INFRASTRUCTURE LAYER" style="text;html=1;align=left;verticalAlign=bottom;whiteSpace=wrap;rounded=0;fontStyle=1;fontColor=#808080;" parent="1" vertex="1">
                    <mxGeometry x="156" y="215" width="510" height="30" as="geometry"/>
                </mxCell>
                <mxCell id="o17m8Pc5TRWk9Ju9fHRL-22" value="" style="endArrow=classic;html=1;rounded=0;labelBackgroundColor=none;fontColor=#808080;strokeColor=#808080;" parent="1" edge="1">
                    <mxGeometry width="50" height="50" relative="1" as="geometry">
                        <mxPoint x="411" y="315" as="sourcePoint"/>
                        <mxPoint x="411" y="355" as="targetPoint"/>
                    </mxGeometry>
                </mxCell>
                <mxCell id="o17m8Pc5TRWk9Ju9fHRL-24" value="" style="endArrow=classic;html=1;rounded=0;labelBackgroundColor=none;fontColor=#808080;strokeColor=#808080;" parent="1" edge="1">
                    <mxGeometry width="50" height="50" relative="1" as="geometry">
                        <mxPoint x="410.5" y="445" as="sourcePoint"/>
                        <mxPoint x="410.5" y="485" as="targetPoint"/>
                    </mxGeometry>
                </mxCell>
                <mxCell id="o17m8Pc5TRWk9Ju9fHRL-28" value="" style="endArrow=classic;html=1;rounded=0;labelBackgroundColor=none;fontColor=#808080;strokeColor=#808080;" parent="1" edge="1">
                    <mxGeometry width="50" height="50" relative="1" as="geometry">
                        <mxPoint x="410.5" y="575" as="sourcePoint"/>
                        <mxPoint x="410.5" y="615" as="targetPoint"/>
                    </mxGeometry>
                </mxCell>
                <mxCell id="o17m8Pc5TRWk9Ju9fHRL-30" value="" style="endArrow=classic;html=1;rounded=0;labelBackgroundColor=none;fontColor=#808080;strokeColor=#808080;" parent="1" edge="1">
                    <mxGeometry width="50" height="50" relative="1" as="geometry">
                        <mxPoint x="410.5" y="705" as="sourcePoint"/>
                        <mxPoint x="410.5" y="745" as="targetPoint"/>
                    </mxGeometry>
                </mxCell>
                <mxCell id="o17m8Pc5TRWk9Ju9fHRL-31" value="" style="endArrow=classic;html=1;rounded=0;labelBackgroundColor=none;fontColor=#808080;strokeColor=#808080;" parent="1" edge="1">
                    <mxGeometry width="50" height="50" relative="1" as="geometry">
                        <mxPoint x="410.5" y="835" as="sourcePoint"/>
                        <mxPoint x="410.5" y="875" as="targetPoint"/>
                    </mxGeometry>
                </mxCell>
            </root>
        </mxGraphModel>
    </diagram>
</mxfile>